<svg xmlns="http://www.w3.org/2000/svg" style="display:none">
    <symbol id="icon-add" viewBox="0 0 16 16">
        <path d="M8 2a.75.75 0 0 1 .75.75v4.5h4.5a.75.75 0 0 1 0 1.5h-4.5v4.5a.75.75 0 0 1-1.5 0v-4.5h-4.5a.75.75 0 0 1 0-1.5h4.5v-4.5A.75.75 0 0 1 8 2Z"/>
    </symbol>
    <symbol id="icon-show" viewBox="0 0 16 16">
        <path d="M8 3c-3.6 0-6.43 2.35-7.56 4.64a.77.77 0 0 0 0 .72C1.57 10.65 4.4 13 8 13s6.43-2.35 7.56-4.64a.77.77 0 0 0 0-.72C14.43 5.35 11.6 3 8 3Zm0 8.5A3.5 3.5 0 1 1 8 4.5a3.5 3.5 0 0 1 0 7Z"/>
        <path d="M8 6a2 2 0 1 0 0 4 2 2 0 0 0 0-4Z"/>
    </symbol>
    <symbol id="icon-hide" viewBox="0 0 16 16">
        <path d="M13.35 12.3 3.7 2.65 2.65 3.7l1.67 1.67C2.6 6.19 1.28 7.68.44 9.36a.77.77 0 0 0 0 .72C1.57 12.35 4.4 14.7 8 14.7c1.55 0 2.96-.44 4.18-1.15l1.47 1.47 1.05-1.05ZM8 13.2c-2.88 0-5.2-1.8-6.23-3.48.68-1.1 1.67-2.17 2.87-2.9l1.22 1.22A2.99 2.99 0 0 0 8.96 11l1.13 1.12A6.45 6.45 0 0 1 8 13.2Zm-.1-10.9c3.7 0 6.53 2.35 7.66 4.64a.77.77 0 0 1 0 .72 11.04 11.04 0 0 1-2.3 2.95L12.2 9.54a9.2 9.2 0 0 0 2.03-2.24C13.2 5.63 10.88 3.8 8 3.8c-.55 0-1.08.07-1.58.2L5.2 2.78c.86-.3 1.79-.48 2.7-.48Z"/>
    </symbol>
    <symbol id="icon-delete" viewBox="0 0 16 16">
        <path d="M6.5 1.75A1.75 1.75 0 0 0 4.75 3.5v.25H2.5a.75.75 0 0 0 0 1.5h.56l.68 8.12A1.75 1.75 0 0 0 5.48 15h5.04a1.75 1.75 0 0 0 1.74-1.63l.68-8.12h.56a.75.75 0 1 0 0-1.5h-2.25V3.5A1.75 1.75 0 0 0 9.5 1.75h-3Zm3.25 2H6.25V3.5a.25.25 0 0 1 .25-.25h3a.25.25 0 0 1 .25.25v.25ZM6 7a.75.75 0 0 1 .75.75v4.5a.75.75 0 0 1-1.5 0v-4.5A.75.75 0 0 1 6 7Zm4 .75a.75.75 0 0 0-1.5 0v4.5a.75.75 0 0 0 1.5 0v-4.5Z"/>
    </symbol>
    <symbol id="icon-logout" viewBox="0 0 16 16">
        <path d="M8 1.5a6.5 6.5 0 1 0 6.5 6.5A6.51 6.51 0 0 0 8 1.5Zm0 1.5a5 5 0 0 1 1.9 9.63A5 5 0 1 1 8 3Zm-.75 1.75a.75.75 0 0 1 1.5 0V8.5a.75.75 0 0 1-1.5 0V4.75Zm.75 8a3.53 3.53 0 0 0 2.9-1.52.75.75 0 1 0-1.23-.86A2.03 2.03 0 0 1 8 11.25a2.03 2.03 0 0 1-1.67-.88.75.75 0 0 0-1.23.86A3.53 3.53 0 0 0 8 12.75Z"/>
    </symbol>
    <symbol id="icon-dashboard" viewBox="0 0 16 16">
        <path d="M2 2.75A1.75 1.75 0 0 1 3.75 1h8.5A1.75 1.75 0 0 1 14 2.75v10.5A1.75 1.75 0 0 1 12.25 15h-8.5A1.75 1.75 0 0 1 2 13.25V2.75Zm1.75-.25a.25.25 0 0 0-.25.25V6h9V2.75a.25.25 0 0 0-.25-.25h-8.5Zm8.75 5H3.5v5.75c0 .14.11.25.25.25h8.5a.25.25 0 0 0 .25-.25V7.5Z"/>
    </symbol>
    <symbol id="icon-users" viewBox="0 0 24 24">
        <path d="M5 21C5 17.134 8.13401 14 12 14C15.866 14 19 17.134 19 21M16 7C16 9.20914 14.2091 11 12 11C9.79086 11 8 9.20914 8 7C8 4.79086 9.79086 3 12 3C14.2091 3 16 4.79086 16 7Z" fill="none" stroke="currentColor" stroke-width="2" stroke-linecap="round" stroke-linejoin="round"/>
    </symbol>
    <symbol id="icon-content" viewBox="0 0 16 16">
        <path d="M3.5 1A1.5 1.5 0 0 0 2 2.5v11A1.5 1.5 0 0 0 3.5 15h9a1.5 1.5 0 0 0 1.5-1.5v-11A1.5 1.5 0 0 0 12.5 1h-9Zm0 1.5h9v11h-9v-11Zm2 2a.75.75 0 0 1 .75-.75h3.5a.75.75 0 0 1 0 1.5h-3.5a.75.75 0 0 1-.75-.75Zm0 3a.75.75 0 0 1 .75-.75h3.5a.75.75 0 0 1 0 1.5h-3.5a.75.75 0 0 1-.75-.75Zm0 3a.75.75 0 0 1 .75-.75h2a.75.75 0 0 1 0 1.5h-2a.75.75 0 0 1-.75-.75Z"/>
    </symbol>
    <symbol id="icon-media" viewBox="0 0 16 16">
        <path d="M2 3.5A1.5 1.5 0 0 1 3.5 2h9A1.5 1.5 0 0 1 14 3.5v9a1.5 1.5 0 0 1-1.5 1.5h-9A1.5 1.5 0 0 1 2 12.5v-9Zm1.5 0v6.95l2.36-2.36a.75.75 0 0 1 1.06 0l1.49 1.49 2.23-2.23a.75.75 0 0 1 1.06 0l.8.8V3.5h-9Zm9 7.77-1.33-1.33-2.23 2.23a.75.75 0 0 1-1.06 0L6.39 10.7 4.6 12.5h7.9Zm-2.75-5.02a1.25 1.25 0 1 0 0-2.5 1.25 1.25 0 0 0 0 2.5Z"/>
    </symbol>
    <symbol id="icon-terms" viewBox="0 0 16 16">
        <path d="M6 2.75 5 13.25M10 2.75 9 13.25M3 6.25h9M2.75 9.75h9" fill="none" stroke="currentColor" stroke-width="1.5" stroke-linecap="round" stroke-linejoin="round"/>
    </symbol>
    <symbol id="icon-settings" viewBox="0 0 16 16">
        <path d="M6.64 1.38a1.2 1.2 0 0 1 2.72 0l.2.82a5.97 5.97 0 0 1 1.16.48l.72-.44a1.2 1.2 0 0 1 1.87 1.58l-.53.67c.2.37.35.76.46 1.16l.83.2a1.2 1.2 0 0 1 0 2.72l-.83.2a5.97 5.97 0 0 1-.46 1.16l.53.67a1.2 1.2 0 0 1-1.87 1.58l-.72-.44a5.97 5.97 0 0 1-1.16.48l-.2.82a1.2 1.2 0 0 1-2.72 0l-.2-.82a5.97 5.97 0 0 1-1.16-.48l-.72.44a1.2 1.2 0 0 1-1.87-1.58l.53-.67a5.97 5.97 0 0 1-.46-1.16l-.83-.2a1.2 1.2 0 0 1 0-2.72l.83-.2c.11-.4.26-.79.46-1.16l-.53-.67A1.2 1.2 0 0 1 4.56 2.24l.72.44c.37-.2.76-.35 1.16-.48l.2-.82ZM8 5.5A2.5 2.5 0 1 0 8 10.5 2.5 2.5 0 0 0 8 5.5Z"/>
    </symbol>
    <symbol id="icon-user" viewBox="0 0 16 16">
        <path d="M8 2.25a3.25 3.25 0 1 0 0 6.5 3.25 3.25 0 0 0 0-6.5ZM3 13a5 5 0 1 1 10 0v.75a.75.75 0 0 1-1.5 0V13a3.5 3.5 0 0 0-7 0v.75a.75.75 0 0 1-1.5 0V13Z"/>
    </symbol>
    <symbol id="icon-warning" viewBox="0 0 16 16">
        <path d="M8 2.05a.75.75 0 0 1 .65.37l5.54 9.6a.75.75 0 0 1-.65 1.13H2.46a.75.75 0 0 1-.65-1.13l5.54-9.6A.75.75 0 0 1 8 2.05Zm0 3.2a.75.75 0 0 0-.75.75v3.25a.75.75 0 0 0 1.5 0V6a.75.75 0 0 0-.75-.75Zm0 6.03a.86.86 0 1 0 0-1.72.86.86 0 0 0 0 1.72Z"/>
    </symbol>
    <symbol id="icon-success" viewBox="0 0 16 16">
        <path d="M8 1.75a6.25 6.25 0 1 0 0 12.5 6.25 6.25 0 0 0 0-12.5Zm2.97 4.53a.75.75 0 0 1 0 1.06L7.6 10.72a.75.75 0 0 1-1.06 0L5.03 9.2a.75.75 0 0 1 1.06-1.06l.98.98 2.84-2.84a.75.75 0 0 1 1.06 0Z"/>
    </symbol>
    <symbol id="icon-check" viewBox="0 0 16 16">
        <path d="M12.78 4.22a.75.75 0 0 1 0 1.06L6.97 11.1a.75.75 0 0 1-1.06 0L3.22 8.41a.75.75 0 1 1 1.06-1.06l2.16 2.16 5.28-5.29a.75.75 0 0 1 1.06 0Z"/>
    </symbol>
    <symbol id="icon-concept" viewBox="0 0 16 16">
        <path d="M11.06 1.97a2.25 2.25 0 0 1 3.18 3.18l-6.6 6.61a.75.75 0 0 1-.35.2l-3 .75a.75.75 0 0 1-.91-.91l.75-3a.75.75 0 0 1 .2-.35l6.61-6.6Zm2.12 1.06a.75.75 0 0 0-1.06 0l-.72.72 1.06 1.06.72-.72a.75.75 0 0 0 0-1.06Zm-2.84 1.78-5.82 5.82-.4 1.6 1.6-.4 5.82-5.82-1.2-1.2Z"/>
    </symbol>
    <symbol id="icon-error" viewBox="0 0 16 16">
        <path d="M8 1.75a6.25 6.25 0 1 0 0 12.5 6.25 6.25 0 0 0 0-12.5Zm2.53 8.78a.75.75 0 0 1-1.06 0L8 9.06l-1.47 1.47a.75.75 0 1 1-1.06-1.06L6.94 8 5.47 6.53a.75.75 0 0 1 1.06-1.06L8 6.94l1.47-1.47a.75.75 0 0 1 1.06 1.06L9.06 8l1.47 1.47a.75.75 0 0 1 0 1.06Z"/>
    </symbol>
    <symbol id="icon-cancel" viewBox="0 0 16 16">
        <path d="M3.22 3.22a.75.75 0 0 1 1.06 0L8 6.94l3.72-3.72a.75.75 0 1 1 1.06 1.06L9.06 8l3.72 3.72a.75.75 0 1 1-1.06 1.06L8 9.06l-3.72 3.72a.75.75 0 1 1-1.06-1.06L6.94 8 3.22 4.28a.75.75 0 0 1 0-1.06Z"/>
    </symbol>
    <symbol id="icon-search" viewBox="0 0 16 16">
        <path d="M7 1.5a5.5 5.5 0 1 0 3.4 9.82l2.64 2.64a.75.75 0 1 0 1.06-1.06l-2.64-2.64A5.5 5.5 0 0 0 7 1.5Zm0 1.5a4 4 0 1 1 0 8 4 4 0 0 1 0-8Z"/>
    </symbol>
    <symbol id="icon-prev" viewBox="0 0 16 16">
        <path d="M10.78 2.22a.75.75 0 0 1 0 1.06L6.06 8l4.72 4.72a.75.75 0 0 1-1.06 1.06l-5.25-5.25a.75.75 0 0 1 0-1.06l5.25-5.25a.75.75 0 0 1 1.06 0Z"/>
    </symbol>
    <symbol id="icon-next" viewBox="0 0 16 16">
        <path d="M5.22 13.78a.75.75 0 0 1 0-1.06L9.94 8 5.22 3.28a.75.75 0 0 1 1.06-1.06l5.25 5.25a.75.75 0 0 1 0 1.06l-5.25 5.25a.75.75 0 0 1-1.06 0Z"/>
    </symbol>
    <symbol id="icon-menu" viewBox="0 0 16 16">
        <path d="M2 3.75A.75.75 0 0 1 2.75 3h10.5a.75.75 0 0 1 0 1.5H2.75A.75.75 0 0 1 2 3.75Zm0 4.25a.75.75 0 0 1 .75-.75h10.5a.75.75 0 0 1 0 1.5H2.75A.75.75 0 0 1 2 8Zm0 4.25a.75.75 0 0 1 .75-.75h10.5a.75.75 0 0 1 0 1.5H2.75a.75.75 0 0 1-.75-.75Z"/>
    </symbol>
    <symbol id="icon-loader" viewBox="0 0 16 16">
        <path d="M8 1.5a6.5 6.5 0 1 0 6.5 6.5.75.75 0 0 0-1.5 0A5 5 0 1 1 8 3a.75.75 0 0 0 0-1.5Z"/>
    </symbol>
    <symbol id="icon-chevron-down" viewBox="0 0 16 16">
        <path d="M3.22 5.47a.75.75 0 0 1 1.06 0L8 9.19l3.72-3.72a.75.75 0 1 1 1.06 1.06l-4.25 4.25a.75.75 0 0 1-1.06 0L3.22 6.53a.75.75 0 0 1 0-1.06Z"/>
    </symbol>
    <symbol id="icon-calendar" viewBox="0 0 16 16">
        <path d="M4.5 1.5a.75.75 0 0 1 .75.75V3h5.5v-.75a.75.75 0 0 1 1.5 0V3h.25A1.75 1.75 0 0 1 14.25 4.75v8.5A1.75 1.75 0 0 1 12.5 15h-9A1.75 1.75 0 0 1 1.75 13.25v-8.5A1.75 1.75 0 0 1 3.5 3h.25v-.75a.75.75 0 0 1 .75-.75ZM3.5 6v7.25a.25.25 0 0 0 .25.25h8.5a.25.25 0 0 0 .25-.25V6h-9ZM6 8.25a.75.75 0 0 1 .75.75v.25h.25a.75.75 0 0 1 0 1.5h-.25V11a.75.75 0 0 1-1.5 0v-.25H5a.75.75 0 0 1 0-1.5h.25V9a.75.75 0 0 1 .75-.75Zm4 0a.75.75 0 0 1 .75.75v2a.75.75 0 0 1-1.5 0V9a.75.75 0 0 1 .75-.75Z"/>
    </symbol>
    <symbol id="icon-email" viewBox="0 0 16 16">
        <path d="M2.5 3.25A1.75 1.75 0 0 0 .75 5v6A1.75 1.75 0 0 0 2.5 12.75h11A1.75 1.75 0 0 0 15.25 11V5A1.75 1.75 0 0 0 13.5 3.25h-11Zm.22 1.5h10.56L8 8.5 2.72 4.75ZM2.25 6.2v4.8c0 .14.11.25.25.25h11a.25.25 0 0 0 .25-.25V6.2L8.44 10a.75.75 0 0 1-.88 0L2.25 6.2Z"/>
    </symbol>
    <symbol id="icon-upload" viewBox="0 0 16 16">
        <path d="M8 1.5a.75.75 0 0 1 .75.75v5.44l1.97-1.97a.75.75 0 1 1 1.06 1.06L8.53 10.03a.75.75 0 0 1-1.06 0L4.22 6.78a.75.75 0 1 1 1.06-1.06L7.25 7.7V2.25A.75.75 0 0 1 8 1.5Z"/>
        <path d="M2.75 9.75a.75.75 0 0 1 .75.75v2c0 .14.11.25.25.25h8.5a.25.25 0 0 0 .25-.25v-2a.75.75 0 0 1 1.5 0v2A1.75 1.75 0 0 1 12.25 14.25h-8.5A1.75 1.75 0 0 1 2 12.5v-2a.75.75 0 0 1 .75-.75Z"/>
    </symbol>
    <symbol id="icon-cat" viewBox="0 0 32 32">
        <path d="M28.926 1.17l-2.182 3.608c-1.876-0.608-4.669-0.489-6.426 0l-2.102-3.557c-3.452 6.448-2.475 10.523 0.159 12.549-0.403 0.252-0.818 0.529-1.247 0.833-10.979-8.759-20.863 1.106-14.379 9.92h0.050c1.163 1.687 2.503 2.731 3.95 3.277 2.050 0.773 4.159 0.551 6.236 0.257s4.109-0.663 6.046-0.525c1.937 0.138 3.874 0.635 5.647 2.569 1.209 1.318 2.926-0.101 1.486-1.507-2.185-2.134-4.525-2.959-6.825-3.122s-4.505 0.293-6.502 0.576c-1.997 0.283-3.761 0.409-5.276-0.163-0.711-0.268-1.403-0.69-2.070-1.36h22.51c1.064-3.756 1.177-7.73-0.033-10.237 3.635-1.897 5.097-6.376 0.958-13.116zM22.176 10.872c-2.316 1.117-3.367 0.212-3.817-1.656 2.273-1.41 3.626-0.278 3.817 1.656zM25.067 10.872c0.191-1.934 1.544-3.067 3.817-1.656-0.45 1.868-1.502 2.774-3.817 1.656z"/>
    </symbol>
    <symbol id="icon-w-bold" viewBox="0 0 24 24">
        <path d="M7 5h6a4 4 0 0 1 0 8H7zm0 8h7a4 4 0 1 1 0 8H7z" fill="none" stroke="currentColor" stroke-width="2" stroke-linecap="round" stroke-linejoin="round"/>
    </symbol>
    <symbol id="icon-w-italic" viewBox="0 0 24 24">
        <path d="M13 4h6M5 20h6m3-16-4 16" fill="none" stroke="currentColor" stroke-width="2" stroke-linecap="round" stroke-linejoin="round"/>
    </symbol>
    <symbol id="icon-w-link" viewBox="0 0 24 24">
        <path d="M10 14a4 4 0 0 1 0-5.66l2.34-2.34a4 4 0 0 1 5.66 5.66L15.66 14M14 10a4 4 0 0 1 0 5.66l-2.34 2.34a4 4 0 1 1-5.66-5.66L8.34 10M9 12h6" fill="none" stroke="currentColor" stroke-width="2" stroke-linecap="round" stroke-linejoin="round"/>
    </symbol>
    <symbol id="icon-w-link-edit" viewBox="0 0 24 24">
        <path d="M12 20h8M4 16.5V20h3.5L18 9.5 14.5 6 4 16.5Z" fill="none" stroke="currentColor" stroke-width="2" stroke-linecap="round" stroke-linejoin="round"/>
    </symbol>
    <symbol id="icon-w-link-unlink" viewBox="0 0 24 24">
        <path d="M4 4 20 20M10 14a4 4 0 0 1 0-5.66l1.5-1.5M14 10a4 4 0 0 1 0 5.66l-1.5 1.5M9 12h6" fill="none" stroke="currentColor" stroke-width="2" stroke-linecap="round" stroke-linejoin="round"/>
    </symbol>
    <symbol id="icon-w-heading" viewBox="0 0 24 24">
        <path d="M5 5v14M13 5v14M5 12h8M16 9l3-2v12M16 15h6" fill="none" stroke="currentColor" stroke-width="2" stroke-linecap="round" stroke-linejoin="round"/>
    </symbol>
    <symbol id="icon-w-ul" viewBox="0 0 24 24">
        <path d="M8 6h12M8 12h12M8 18h12M4 6h.01M4 12h.01M4 18h.01" fill="none" stroke="currentColor" stroke-width="2" stroke-linecap="round" stroke-linejoin="round"/>
    </symbol>
    <symbol id="icon-w-ol" viewBox="0 0 24 24">
        <path d="M10 6h10M10 12h10M10 18h10M4 7V5l-1 1M4 13h1v-2H4v2Zm0 5h2a1 1 0 0 0 0-2H4v2Z" fill="none" stroke="currentColor" stroke-width="2" stroke-linecap="round" stroke-linejoin="round"/>
    </symbol>
    <symbol id="icon-w-clear" viewBox="0 0 24 24">
        <path d="M13.5 6H19M4 19h6M6 14.5 14.5 6l3.5 3.5-8.5 8.5H6v-3.5Z" fill="none" stroke="currentColor" stroke-width="2" stroke-linecap="round" stroke-linejoin="round"/>
    </symbol>
    <symbol id="icon-w-html" viewBox="0 0 24 24">
        <path d="M8 7 3 12l5 5M16 7l5 5-5 5M14 5l-4 14" fill="none" stroke="currentColor" stroke-width="2" stroke-linecap="round" stroke-linejoin="round"/>
    </symbol>
    <symbol id="icon-w-image" viewBox="0 0 24 24">
        <path d="M4 5h16v14H4zM8 11l2.5 3L14 10l4 5M9 9h.01" fill="none" stroke="currentColor" stroke-width="2" stroke-linecap="round" stroke-linejoin="round"/>
    </symbol>
    <symbol id="icon-w-quote" viewBox="0 0 24 24">
        <path d="M10 7H6v6h4v4H6M18 7h-4v6h4v4h-4" fill="none" stroke="currentColor" stroke-width="2" stroke-linecap="round" stroke-linejoin="round"/>
    </symbol>
    <symbol id="icon-w-align-left" viewBox="0 0 24 24">
        <path d="M4 6h16M4 10h10M4 14h16M4 18h10" fill="none" stroke="currentColor" stroke-width="2" stroke-linecap="round" stroke-linejoin="round"/>
    </symbol>
    <symbol id="icon-w-align-center" viewBox="0 0 24 24">
        <path d="M4 6h16M7 10h10M4 14h16M7 18h10" fill="none" stroke="currentColor" stroke-width="2" stroke-linecap="round" stroke-linejoin="round"/>
    </symbol>
    <symbol id="icon-w-align-right" viewBox="0 0 24 24">
        <path d="M4 6h16M10 10h10M4 14h16M10 18h10" fill="none" stroke="currentColor" stroke-width="2" stroke-linecap="round" stroke-linejoin="round"/>
    </symbol>
    <symbol id="icon-w-align-justify" viewBox="0 0 24 24">
        <path d="M4 6h16M4 10h16M4 14h16M4 18h16" fill="none" stroke="currentColor" stroke-width="2" stroke-linecap="round" stroke-linejoin="round"/>
    </symbol>
    <symbol id="icon-w-text-color" viewBox="0 0 24 24">
        <path d="M4 20h16M12 4l5 12M12 4 7 16M9 12h6" fill="none" stroke="currentColor" stroke-width="2" stroke-linecap="round" stroke-linejoin="round"/>
    </symbol>
    <symbol id="icon-w-bg-color" viewBox="0 0 24 24">
        <path d="M4 20h16M9 4h8M8 4l3.5 9.5M16 4l-3.5 9.5M7 16h10v2H7z" fill="none" stroke="currentColor" stroke-width="2" stroke-linecap="round" stroke-linejoin="round"/>
    </symbol>
    <symbol id="icon-w-focus" viewBox="0 0 24 24">
        <path d="M4 9V4h5M15 4h5v5M20 15v5h-5M9 20H4v-5" fill="none" stroke="currentColor" stroke-width="2" stroke-linecap="round" stroke-linejoin="round"/>
    </symbol>
    <symbol id="icon-w-pagebreak" viewBox="0 0 24 24">
        <path d="M4 7h16M4 17h16M9 12h6" fill="none" stroke="currentColor" stroke-width="2" stroke-linecap="round" stroke-linejoin="round"/>
    </symbol>
</svg>
