<svg xmlns="http://www.w3.org/2000/svg" style="display:none">
  <symbol id="w-bold" viewBox="0 0 24 24">
    <path d="M7 5h6a4 4 0 0 1 0 8H7zm0 8h7a4 4 0 1 1 0 8H7z" fill="none" stroke="currentColor" stroke-width="2" stroke-linecap="round" stroke-linejoin="round"/>
  </symbol>
  <symbol id="w-italic" viewBox="0 0 24 24">
    <path d="M13 4h6M5 20h6m3-16-4 16" fill="none" stroke="currentColor" stroke-width="2" stroke-linecap="round" stroke-linejoin="round"/>
  </symbol>
  <symbol id="w-link" viewBox="0 0 24 24">
    <path d="M10.5 13.5 13.5 10.5M8 16a4 4 0 0 1 0-5.7l2.3-2.3a4 4 0 0 1 5.7 0M16 8a4 4 0 0 1 0 5.7l-2.3 2.3a4 4 0 0 1-5.7 0" fill="none" stroke="currentColor" stroke-width="2" stroke-linecap="round" stroke-linejoin="round"/>
  </symbol>
  <symbol id="w-ul" viewBox="0 0 24 24">
    <path d="M8 6h12M8 12h12M8 18h12M4 6h.01M4 12h.01M4 18h.01" fill="none" stroke="currentColor" stroke-width="2" stroke-linecap="round" stroke-linejoin="round"/>
  </symbol>
  <symbol id="w-ol" viewBox="0 0 24 24">
    <path d="M10 6h10M10 12h10M10 18h10M4 7V5l-1 1M4 13h1v-2H4v2Zm0 5h2a1 1 0 0 0 0-2H4v2Z" fill="none" stroke="currentColor" stroke-width="2" stroke-linecap="round" stroke-linejoin="round"/>
  </symbol>
  <symbol id="w-clear" viewBox="0 0 24 24">
    <path d="M5 5 19 19M9 5h10M5 9v10h10" fill="none" stroke="currentColor" stroke-width="2" stroke-linecap="round" stroke-linejoin="round"/>
  </symbol>
</svg>
