<svg xmlns="http://www.w3.org/2000/svg" style="display:none">
  <symbol id="w-bold" viewBox="0 0 24 24">
    <path d="M7 5h6a4 4 0 0 1 0 8H7zm0 8h7a4 4 0 1 1 0 8H7z" fill="none" stroke="currentColor" stroke-width="2" stroke-linecap="round" stroke-linejoin="round"/>
  </symbol>
  <symbol id="w-italic" viewBox="0 0 24 24">
    <path d="M13 4h6M5 20h6m3-16-4 16" fill="none" stroke="currentColor" stroke-width="2" stroke-linecap="round" stroke-linejoin="round"/>
  </symbol>
  <symbol id="w-link" viewBox="0 0 24 24">
    <path d="M10.5 13.5 13.5 10.5M8 16a4 4 0 0 1 0-5.7l2.3-2.3a4 4 0 0 1 5.7 0M16 8a4 4 0 0 1 0 5.7l-2.3 2.3a4 4 0 0 1-5.7 0" fill="none" stroke="currentColor" stroke-width="2" stroke-linecap="round" stroke-linejoin="round"/>
  </symbol>
  <symbol id="w-heading" viewBox="0 0 24 24">
    <path d="M5 5v14M13 5v14M5 12h8M16 9l3-2v12M16 15h6" fill="none" stroke="currentColor" stroke-width="2" stroke-linecap="round" stroke-linejoin="round"/>
  </symbol>
  <symbol id="w-ul" viewBox="0 0 24 24">
    <path d="M8 6h12M8 12h12M8 18h12M4 6h.01M4 12h.01M4 18h.01" fill="none" stroke="currentColor" stroke-width="2" stroke-linecap="round" stroke-linejoin="round"/>
  </symbol>
  <symbol id="w-ol" viewBox="0 0 24 24">
    <path d="M10 6h10M10 12h10M10 18h10M4 7V5l-1 1M4 13h1v-2H4v2Zm0 5h2a1 1 0 0 0 0-2H4v2Z" fill="none" stroke="currentColor" stroke-width="2" stroke-linecap="round" stroke-linejoin="round"/>
  </symbol>
  <symbol id="w-clear" viewBox="0 0 24 24">
    <path d="M5 5 19 19M9 5h10M5 9v10h10" fill="none" stroke="currentColor" stroke-width="2" stroke-linecap="round" stroke-linejoin="round"/>
  </symbol>
  <symbol id="w-html" viewBox="0 0 24 24">
    <path d="M8 7 3 12l5 5M16 7l5 5-5 5M14 5l-4 14" fill="none" stroke="currentColor" stroke-width="2" stroke-linecap="round" stroke-linejoin="round"/>
  </symbol>
  <symbol id="w-image" viewBox="0 0 24 24">
    <path d="M4 5h16v14H4zM8 11l2.5 3L14 10l4 5M9 9h.01" fill="none" stroke="currentColor" stroke-width="2" stroke-linecap="round" stroke-linejoin="round"/>
  </symbol>
  <symbol id="w-quote" viewBox="0 0 24 24">
    <path d="M7 9h4v4H7v3h3a3 3 0 0 0 3-3V9a3 3 0 0 0-3-3H7v3Zm8 0h4v4h-4v3h3a3 3 0 0 0 3-3V9a3 3 0 0 0-3-3h-3v3Z" fill="none" stroke="currentColor" stroke-width="2" stroke-linecap="round" stroke-linejoin="round"/>
  </symbol>
  <symbol id="w-align-left" viewBox="0 0 24 24">
    <path d="M4 6h16M4 10h10M4 14h16M4 18h10" fill="none" stroke="currentColor" stroke-width="2" stroke-linecap="round" stroke-linejoin="round"/>
  </symbol>
  <symbol id="w-align-center" viewBox="0 0 24 24">
    <path d="M4 6h16M7 10h10M4 14h16M7 18h10" fill="none" stroke="currentColor" stroke-width="2" stroke-linecap="round" stroke-linejoin="round"/>
  </symbol>
  <symbol id="w-align-right" viewBox="0 0 24 24">
    <path d="M4 6h16M10 10h10M4 14h16M10 18h10" fill="none" stroke="currentColor" stroke-width="2" stroke-linecap="round" stroke-linejoin="round"/>
  </symbol>
  <symbol id="w-align-justify" viewBox="0 0 24 24">
    <path d="M4 6h16M4 10h16M4 14h16M4 18h16" fill="none" stroke="currentColor" stroke-width="2" stroke-linecap="round" stroke-linejoin="round"/>
  </symbol>
</svg>
