<svg xmlns="http://www.w3.org/2000/svg" style="display:none">
    <symbol id="icon-add" viewBox="0 0 16 16">
        <path d="M8 2a.75.75 0 0 1 .75.75v4.5h4.5a.75.75 0 0 1 0 1.5h-4.5v4.5a.75.75 0 0 1-1.5 0v-4.5h-4.5a.75.75 0 0 1 0-1.5h4.5v-4.5A.75.75 0 0 1 8 2Z"/>
    </symbol>
    <symbol id="icon-show" viewBox="0 0 16 16">
        <path d="M8 3c-3.6 0-6.43 2.35-7.56 4.64a.77.77 0 0 0 0 .72C1.57 10.65 4.4 13 8 13s6.43-2.35 7.56-4.64a.77.77 0 0 0 0-.72C14.43 5.35 11.6 3 8 3Zm0 8.5A3.5 3.5 0 1 1 8 4.5a3.5 3.5 0 0 1 0 7Z"/>
        <path d="M8 6a2 2 0 1 0 0 4 2 2 0 0 0 0-4Z"/>
    </symbol>
    <symbol id="icon-hide" viewBox="0 0 16 16">
        <path d="M13.35 12.3 3.7 2.65 2.65 3.7l1.67 1.67C2.6 6.19 1.28 7.68.44 9.36a.77.77 0 0 0 0 .72C1.57 12.35 4.4 14.7 8 14.7c1.55 0 2.96-.44 4.18-1.15l1.47 1.47 1.05-1.05ZM8 13.2c-2.88 0-5.2-1.8-6.23-3.48.68-1.1 1.67-2.17 2.87-2.9l1.22 1.22A2.99 2.99 0 0 0 8.96 11l1.13 1.12A6.45 6.45 0 0 1 8 13.2Zm-.1-10.9c3.7 0 6.53 2.35 7.66 4.64a.77.77 0 0 1 0 .72 11.04 11.04 0 0 1-2.3 2.95L12.2 9.54a9.2 9.2 0 0 0 2.03-2.24C13.2 5.63 10.88 3.8 8 3.8c-.55 0-1.08.07-1.58.2L5.2 2.78c.86-.3 1.79-.48 2.7-.48Z"/>
    </symbol>
    <symbol id="icon-delete" viewBox="0 0 16 16">
        <path d="M6.5 1.75A1.75 1.75 0 0 0 4.75 3.5v.25H2.5a.75.75 0 0 0 0 1.5h.56l.68 8.12A1.75 1.75 0 0 0 5.48 15h5.04a1.75 1.75 0 0 0 1.74-1.63l.68-8.12h.56a.75.75 0 1 0 0-1.5h-2.25V3.5A1.75 1.75 0 0 0 9.5 1.75h-3Zm3.25 2H6.25V3.5a.25.25 0 0 1 .25-.25h3a.25.25 0 0 1 .25.25v.25ZM6 7a.75.75 0 0 1 .75.75v4.5a.75.75 0 0 1-1.5 0v-4.5A.75.75 0 0 1 6 7Zm4 .75a.75.75 0 0 0-1.5 0v4.5a.75.75 0 0 0 1.5 0v-4.5Z"/>
    </symbol>
    <symbol id="icon-logout" viewBox="0 0 16 16">
        <path d="M6.75 1.5A1.75 1.75 0 0 0 5 3.25v1a.75.75 0 0 0 1.5 0v-1a.25.25 0 0 1 .25-.25h5a.25.25 0 0 1 .25.25v9.5a.25.25 0 0 1-.25.25h-5a.25.25 0 0 1-.25-.25v-1a.75.75 0 0 0-1.5 0v1A1.75 1.75 0 0 0 6.75 14.5h5A1.75 1.75 0 0 0 13.5 12.75v-9.5A1.75 1.75 0 0 0 11.75 1.5h-5Z"/>
        <path d="M8.22 8.75H1.75a.75.75 0 0 1 0-1.5h6.47L6.47 5.53a.75.75 0 1 1 1.06-1.06l3.03 3.03a.75.75 0 0 1 0 1.06L7.53 11.6a.75.75 0 0 1-1.06-1.06L8.22 8.75Z"/>
    </symbol>
    <symbol id="icon-user" viewBox="0 0 16 16">
        <path d="M8 2.25a3.25 3.25 0 1 0 0 6.5 3.25 3.25 0 0 0 0-6.5ZM3 13a5 5 0 1 1 10 0v.75a.75.75 0 0 1-1.5 0V13a3.5 3.5 0 0 0-7 0v.75a.75.75 0 0 1-1.5 0V13Z"/>
    </symbol>
    <symbol id="icon-cancel" viewBox="0 0 16 16">
        <path d="M3.22 3.22a.75.75 0 0 1 1.06 0L8 6.94l3.72-3.72a.75.75 0 1 1 1.06 1.06L9.06 8l3.72 3.72a.75.75 0 1 1-1.06 1.06L8 9.06l-3.72 3.72a.75.75 0 1 1-1.06-1.06L6.94 8 3.22 4.28a.75.75 0 0 1 0-1.06Z"/>
    </symbol>
</svg>
